<svg width="33" height="32" viewBox="0 0 33 32" fill="none" xmlns="http://www.w3.org/2000/svg">
<path d="M32.0448 15.8862C32.0448 24.3837 25.1562 31.2723 16.6586 31.2723C8.16108 31.2723 1.27246 24.3837 1.27246 15.8862C1.27246 7.38862 8.16108 0.5 16.6586 0.5C25.1562 0.5 32.0448 7.38862 32.0448 15.8862Z" fill="white" stroke="#DFE4EA"/>
<path d="M13.6266 11.3334C13.6265 11.687 13.4858 12.0261 13.2356 12.276C12.9855 12.5259 12.6462 12.6662 12.2926 12.6661C11.939 12.6659 11.5999 12.5252 11.35 12.2751C11.1001 12.0249 10.9598 11.6857 10.96 11.3321C10.9601 10.9784 11.1008 10.6394 11.351 10.3894C11.6011 10.1395 11.9403 9.99921 12.294 9.99939C12.6476 9.99957 12.9867 10.1402 13.2366 10.3904C13.4865 10.6406 13.6268 10.9798 13.6266 11.3334ZM13.6666 13.6534H11V22.0001H13.6666V13.6534ZM17.88 13.6534H15.2266V22.0001H17.8533V17.6201C17.8533 15.1801 21.0333 14.9534 21.0333 17.6201V22.0001H23.6666V16.7134C23.6666 12.6001 18.96 12.7534 17.8533 14.7734L17.88 13.6534Z" fill="#111928"/>
</svg>
