<svg width="111" height="111" viewBox="0 0 111 111" fill="none" xmlns="http://www.w3.org/2000/svg">
<path d="M46.0897 55.753L35.9372 50.9424L30.5989 62.5973H26.8873C25.3875 62.5973 23.9492 63.194 22.8887 64.2561C21.8282 65.3182 21.2324 66.7587 21.2324 68.2608C21.2324 69.7628 21.8282 71.2034 22.8887 72.2655C23.9492 73.3276 25.3875 73.9243 26.8873 73.9243H33.5028C34.7712 73.9221 36.0126 73.5565 37.0803 72.8707C38.1481 72.1849 38.9976 71.2075 39.5288 70.0539L46.0897 55.753ZM37.0398 68.873C36.7281 69.5527 36.228 70.1284 35.599 70.5315C34.97 70.9347 34.2386 71.1484 33.4918 71.1472H26.8873C26.1113 71.1472 25.3672 70.8385 24.8185 70.289C24.2698 69.7395 23.9616 68.9942 23.9616 68.217C23.9616 67.4399 24.2698 66.6946 24.8185 66.1451C25.3672 65.5956 26.1113 65.2869 26.8873 65.2869H31.7124C31.8987 65.287 32.0811 65.2335 32.2379 65.1327C32.3947 65.0319 32.5192 64.8881 32.5967 64.7184L37.269 54.5504L42.4872 57.0213L38.6882 65.3306L37.0398 68.873Z" fill="white"/>
<path d="M63.6878 18.7C65.4436 18.7 67.1599 18.1784 68.6197 17.2012C70.0795 16.224 71.217 14.8351 71.8885 13.2102C72.5599 11.5854 72.735 9.79758 72.3917 8.07302C72.0483 6.34847 71.202 4.76465 69.9596 3.52197C68.7173 2.27929 67.1349 1.43357 65.4125 1.09183C63.6902 0.750092 61.9053 0.92768 60.2838 1.60213C58.6622 2.27658 57.2769 3.41758 56.3029 4.88077C55.329 6.34397 54.8103 8.0636 54.8125 9.8221C54.8154 12.1777 55.7517 14.4358 57.4159 16.1004C59.08 17.765 61.3358 18.7 63.6878 18.7ZM63.6878 3.76503C64.8857 3.75637 66.0593 4.10424 67.0596 4.76451C68.0599 5.42478 68.8418 6.36771 69.3063 7.4737C69.7707 8.57969 69.8967 9.79892 69.6683 10.9767C69.4399 12.1546 68.8674 13.2379 68.0234 14.0894C67.1793 14.9409 66.1018 15.5221 64.9275 15.7594C63.7531 15.9967 62.5349 15.8793 61.4272 15.4222C60.3196 14.965 59.3724 14.1887 58.7059 13.1917C58.0395 12.1947 57.6836 11.0219 57.6836 9.8221C57.6835 8.22321 58.3147 6.68917 59.4395 5.5545C60.5643 4.41982 62.0914 3.77658 63.6878 3.76503Z" fill="white"/>
<path d="M32.3896 39.5062C33.2388 39.5167 34.0782 39.3237 34.8378 38.9433C35.5974 38.5629 36.2552 38.0062 36.7563 37.3195L36.9419 37.079L40.075 30.2019H45.315L39.9331 41.9771C39.2158 43.5654 39.1403 45.3701 39.7223 47.0129C40.3044 48.6557 41.4988 50.0091 43.0552 50.7894L58.8298 58.4974V74.635C58.8298 76.1298 59.4227 77.5633 60.4781 78.6203C61.5334 79.6773 62.9648 80.2711 64.4573 80.2711C65.9499 80.2711 67.3812 79.6773 68.4366 78.6203C69.492 77.5633 70.0849 76.1298 70.0849 74.635V54.8566C70.0842 53.7568 69.7773 52.679 69.1988 51.7442C68.6203 50.8095 67.793 50.0547 66.8099 49.5648L55.6967 44.0982L59.2883 36.2371L61.1878 38.1614C61.7966 38.7805 62.5222 39.2724 63.3224 39.6084C64.1226 39.9443 64.9815 40.1177 65.8492 40.1184H70.9473C72.4187 40.1225 73.8345 39.5552 74.8971 38.5358C75.9597 37.5164 76.5865 36.1243 76.6458 34.6518C76.7093 33.1341 76.1718 31.6527 75.1502 30.5299C74.6261 29.9753 73.9949 29.5332 73.2949 29.2306C72.5949 28.928 71.8407 28.7712 71.0783 28.7696H67.8033L62.8144 23.8168C62.5161 23.5193 62.169 23.2752 61.7882 23.0952L53.5898 19.192C53.1014 18.9621 52.5684 18.8427 52.0287 18.8422H35.3699C34.6486 18.8421 33.9421 19.0477 33.3332 19.4349C32.7242 19.8221 32.2379 20.375 31.9311 21.0288L26.4728 33.0555C26.2272 33.6206 26.1285 34.2388 26.1857 34.8525C26.243 35.4662 26.4544 36.0553 26.8003 36.5651C27.436 37.4603 28.2733 38.1931 29.2443 38.704C30.2154 39.215 31.2929 39.4898 32.3896 39.5062ZM28.9509 34.2144L34.4092 22.1878C34.4953 22.0013 34.6321 21.843 34.804 21.7308C34.9758 21.6186 35.1757 21.5572 35.3808 21.5536H52.0178C52.1617 21.5549 52.3035 21.5885 52.4326 21.652L60.6201 25.5552C60.721 25.6011 60.8133 25.664 60.8931 25.7411L66.3514 31.2078C66.5305 31.3885 66.7739 31.4907 67.0282 31.492H71.0346C71.4312 31.4944 71.8231 31.5774 72.1866 31.7361C72.5501 31.8949 72.8776 32.1259 73.1492 32.4153C73.4208 32.7047 73.6308 33.0464 73.7665 33.4195C73.9021 33.7927 73.9607 34.1896 73.9385 34.5862C73.8938 35.349 73.5587 36.0656 73.0022 36.5883C72.4457 37.111 71.7102 37.4001 70.9473 37.396H65.8383C64.8236 37.3838 63.8547 36.9713 63.1419 36.248L59.4302 32.5307C59.3204 32.4193 59.185 32.3364 59.036 32.2892C58.8869 32.242 58.7286 32.232 58.5747 32.26C58.4209 32.2881 58.2762 32.3532 58.1533 32.4499C58.0303 32.5466 57.9328 32.6719 57.8691 32.815L52.509 44.5574C52.3998 44.7911 52.3867 45.0585 52.4725 45.3019C52.5582 45.5452 52.736 45.7451 52.9675 45.8584L65.62 52.0467C66.1461 52.3053 66.589 52.707 66.8979 53.2058C67.2067 53.7047 67.3692 54.2805 67.3666 54.8675V74.6568C67.3695 75.0416 67.2967 75.4232 67.1523 75.7798C67.0079 76.1364 66.7948 76.4611 66.5252 76.7352C66.2555 77.0093 65.9346 77.2275 65.5807 77.3774C65.2269 77.5274 64.847 77.606 64.4628 77.6088C64.0786 77.606 63.6987 77.5274 63.3448 77.3774C62.991 77.2275 62.6701 77.0093 62.4004 76.7352C62.1308 76.4611 61.9177 76.1364 61.7733 75.7798C61.6289 75.4232 61.5561 75.0416 61.559 74.6568V57.3931C61.5597 57.2091 61.509 57.0287 61.4125 56.8721C61.316 56.7156 61.1777 56.5893 61.0131 56.5075L49.6161 50.9315L44.267 48.3075C43.3446 47.8558 42.6339 47.0623 42.2855 46.095C41.937 45.1277 41.9782 44.0625 42.4002 43.1251L43.3063 41.1352L48.9502 28.868C49.0197 28.7186 49.0506 28.554 49.0401 28.3895C49.0295 28.2249 48.9779 28.0657 48.8898 27.9264C48.8018 27.787 48.6802 27.6721 48.5363 27.5921C48.3923 27.5121 48.2306 27.4696 48.066 27.4686H38.9505C38.7642 27.4684 38.5818 27.522 38.4251 27.6228C38.2683 27.7236 38.1437 27.8674 38.0663 28.0371L34.5948 35.6904C32.6735 38.2379 28.3395 35.5592 28.9509 34.2144Z" fill="white"/>
<path d="M24.3114 46.8534C25.3072 45.8105 25.8558 44.4186 25.8397 42.9757C25.8237 41.5328 25.2442 40.1535 24.2254 39.1331C23.2066 38.1128 21.8294 37.5324 20.3887 37.5163C18.948 37.5002 17.5582 38.0497 16.5169 39.047L12.6197 35.1438L0.916992 46.8534L16.5169 62.4334L28.2087 50.7238L24.3114 46.8534ZM22.3573 40.9931C22.8726 41.5115 23.1619 42.2132 23.1619 42.9447C23.1619 43.6762 22.8726 44.3779 22.3573 44.8963L18.4601 40.9931C18.9733 40.4727 19.6716 40.177 20.4019 40.1709C21.1323 40.1647 21.8354 40.4486 22.3573 40.9603V40.9931ZM4.81424 46.8534L12.6087 39.047L24.3114 50.7238L16.5169 58.5302L4.81424 46.8534Z" fill="white"/>
<path d="M99.1667 47.4V66.5334H77.3333V82.9334H58.2292V102.067H39.125V110.267H110.083V47.4H99.1667ZM107.354 107.533H41.8542V104.8H60.9583V85.6667H80.0625V69.2667H101.896V50.1334H107.354V107.533Z" fill="white"/>
</svg>
