<svg width="32" height="32" viewBox="0 0 32 32" fill="none" xmlns="http://www.w3.org/2000/svg">
<path d="M0 16C0 7.16344 7.16344 0 16 0C24.8366 0 32 7.16344 32 16C32 24.8366 24.8366 32 16 32C7.16344 32 0 24.8366 0 16Z" fill="#3758F9"/>
<path d="M19.8502 14.45H18.4502H17.9502V13.95V12.4V11.9H18.4502H19.5002C19.7752 11.9 20.0002 11.7 20.0002 11.4V8.75C20.0002 8.475 19.8002 8.25 19.5002 8.25H17.6752C15.7002 8.25 14.3252 9.65 14.3252 11.725V13.9V14.4H13.8252H12.1252C11.7752 14.4 11.4502 14.675 11.4502 15.075V16.875C11.4502 17.225 11.7252 17.55 12.1252 17.55H13.7752H14.2752V18.05V23.075C14.2752 23.425 14.5502 23.75 14.9502 23.75H17.3002C17.4502 23.75 17.5752 23.675 17.6752 23.575C17.7752 23.475 17.8502 23.3 17.8502 23.15V18.075V17.575H18.3752H19.5002C19.8252 17.575 20.0752 17.375 20.1252 17.075V17.05V17.025L20.4752 15.3C20.5002 15.125 20.4752 14.925 20.3252 14.725C20.2752 14.6 20.0502 14.475 19.8502 14.45Z" fill="white"/>
</svg>
