<svg xmlns="http://www.w3.org/2000/svg" width="26.838" height="26.838" viewBox="0 0 26.838 26.838"><defs><style>.a{fill:#e5e5e5;}</style></defs><path class="a" d="M13.419.563A13.419,13.419,0,1,0,26.838,13.982,13.417,13.417,0,0,0,13.419.563Zm0,5.194a4.762,4.762,0,1,1-4.762,4.762A4.762,4.762,0,0,1,13.419,5.757Zm0,18.613a10.369,10.369,0,0,1-7.927-3.69,6.033,6.033,0,0,1,5.33-3.236,1.324,1.324,0,0,1,.384.06,7.164,7.164,0,0,0,2.213.373,7.137,7.137,0,0,0,2.213-.373,1.324,1.324,0,0,1,.384-.06,6.033,6.033,0,0,1,5.33,3.236A10.369,10.369,0,0,1,13.419,24.37Z" transform="translate(0 -0.563)"/></svg>