<svg width="500" height="372" viewBox="0 0 500 372" fill="none" xmlns="http://www.w3.org/2000/svg">
<rect x="1.5" y="1.5" width="497" height="369" rx="6.5" fill="#EEF1F4"/>
<rect x="1.5" y="1.5" width="497" height="369" rx="6.5" stroke="#545F71" stroke-width="3"/>
<path d="M239.333 190.333L245.447 184.219C246.489 183.178 248.177 183.178 249.219 184.219L255.333 190.333M252.666 187.667L254.781 185.552C255.822 184.511 257.511 184.511 258.552 185.552L260.666 187.667M252.666 179.667H252.68M242 195.667H258C259.472 195.667 260.666 194.473 260.666 193V177C260.666 175.527 259.472 174.333 258 174.333H242C240.527 174.333 239.333 175.527 239.333 177V193C239.333 194.473 240.527 195.667 242 195.667Z" stroke="#545F71" stroke-width="2" stroke-linecap="round" stroke-linejoin="round"/>
</svg>
