<svg width="41" height="40" viewBox="0 0 41 40" fill="none" xmlns="http://www.w3.org/2000/svg">
<g clip-path="url(#clip0_105_51418)">
<path opacity="0.72" d="M40.088 18.3521C40.0683 18.1526 39.9755 17.9672 39.8274 17.8315C39.6793 17.6957 39.4862 17.6191 39.2849 17.6161H19.273C18.7296 17.6293 18.199 17.7839 17.7341 18.0646C17.2693 18.3453 16.8861 18.7423 16.6229 19.2161C16.3792 19.6398 16.251 20.1197 16.251 20.6081C16.251 21.0965 16.3792 21.5763 16.6229 22.0001C16.6925 22.1333 16.7957 22.2462 16.9225 22.3276C17.0492 22.409 17.195 22.456 17.3456 22.4641H39.3332C39.5344 22.4611 39.7275 22.3844 39.8757 22.2487C40.0238 22.1129 40.1165 21.9276 40.1362 21.7281C40.1362 21.1041 40.1362 20.5761 40.1362 20.1281C40.1362 19.6801 40.1362 18.9601 40.088 18.3521Z" fill="#3758F9"/>
<path d="M40.072 18.3521C40.0561 18.1539 39.9667 17.9688 39.8213 17.8327C39.6758 17.6967 39.4846 17.6194 39.285 17.6161H36.0728C35.9602 17.6174 35.849 17.6422 35.7466 17.6891C35.6442 17.736 35.5529 17.8038 35.4786 17.8881C35.4037 17.9692 35.3476 18.0657 35.3143 18.1707C35.281 18.2758 35.2713 18.3869 35.2859 18.4961C35.2859 19.0081 35.2859 19.5201 35.2859 20.0961C35.2818 22.6492 34.6323 25.1602 33.3972 27.3973C32.1622 29.6343 30.3812 31.5255 28.219 32.8961C27.9941 33.0401 27.7855 33.2161 27.5445 33.3441C26.366 34.0127 25.1015 34.5187 23.7861 34.8481L25.8902 38.5761C25.9616 38.6994 26.0648 38.8014 26.189 38.8717C26.3132 38.942 26.4539 38.9781 26.5968 38.9761C26.6818 38.9914 26.7689 38.9914 26.8538 38.9761L27.3677 38.7681L27.8335 38.5761C28.544 38.2821 29.2359 37.9455 29.9055 37.5681C33.0369 35.8108 35.6388 33.2502 37.4407 30.1524C39.2427 27.0545 40.1791 23.5324 40.1524 19.9521C40.1524 19.3601 40.1202 18.8961 40.072 18.3521Z" fill="#3758F9"/>
<path d="M28.704 33.5388C28.5961 33.3563 28.4245 33.2196 28.2221 33.1548H27.9972C27.8578 33.1559 27.7204 33.1887 27.5957 33.2508C25.3055 34.549 22.7142 35.2275 20.0793 35.2188C16.0352 35.2103 12.1592 33.6062 9.29964 30.7575C6.44006 27.9088 4.82979 24.0475 4.8213 20.0188C4.82979 15.9901 6.44006 12.1288 9.29964 9.28011C12.1592 6.43139 16.0352 4.82725 20.0793 4.81879C22.713 4.81963 25.3019 5.49748 27.5957 6.78679C27.7156 6.86261 27.8552 6.90156 27.9972 6.89879H28.1739C28.284 6.87457 28.3879 6.82797 28.4791 6.7619C28.5703 6.69582 28.6469 6.61169 28.704 6.51479L30.3101 3.73079C30.4163 3.54563 30.4455 3.32642 30.3915 3.12009C30.3374 2.91375 30.2043 2.73669 30.0209 2.62679C26.9978 0.924898 23.5839 0.0319195 20.1114 0.034797C14.7895 0.0432594 9.6879 2.15311 5.92471 5.90201C2.16152 9.6509 0.043651 14.7331 0.0351562 20.0348C0.043651 25.3365 2.16152 30.4187 5.92471 34.1676C9.6879 37.9165 14.7895 40.0263 20.1114 40.0348C23.5839 40.0377 26.9978 39.1447 30.0209 37.4428C30.1128 37.3914 30.1934 37.3222 30.2579 37.2392C30.3225 37.1562 30.3696 37.0612 30.3966 36.9597C30.4235 36.8583 30.4299 36.7524 30.415 36.6485C30.4001 36.5446 30.3644 36.4447 30.3101 36.3548L28.704 33.5388Z" fill="#3758F9"/>
<path opacity="0.56" d="M22.3727 22.4H17.2976C17.1537 22.3898 17.0142 22.3452 16.8912 22.27C16.7682 22.1948 16.6652 22.0912 16.5908 21.968L25.9224 38.432C25.9938 38.5553 26.0969 38.6573 26.2211 38.7277C26.3454 38.798 26.4861 38.834 26.6289 38.832C26.7193 38.8472 26.8117 38.8472 26.9021 38.832C27.9633 38.4514 28.9897 37.9803 29.9698 37.424C30.0616 37.3726 30.1421 37.3034 30.2066 37.2204C30.2711 37.1375 30.3182 37.0424 30.3452 36.9409C30.3722 36.8395 30.3785 36.7336 30.3636 36.6297C30.3488 36.5258 30.3131 36.4259 30.2587 36.336L22.3727 22.4Z" fill="#3758F9"/>
</g>
<defs>
<clipPath id="clip0_105_51418">
<rect width="40.1525" height="40" fill="white"/>
</clipPath>
</defs>
</svg>
