<svg xmlns="http://www.w3.org/2000/svg" xmlns:xlink="http://www.w3.org/1999/xlink" width="978" height="249" viewBox="0 0 978 249"><defs><style>.a{fill:#f4fecb;stroke:#daeb93;}.b{clip-path:url(#a);}.c{fill:#feefcb;stroke:#f6e0ab;}.c,.d{opacity:0;}.d{fill:#fecbcb;stroke:#f5b6b6;}.e{fill:#fff;}.f{stroke:none;}.g{fill:none;}</style><clipPath id="a"><rect class="a" width="978" height="249" rx="6" transform="translate(274 52)"/></clipPath></defs><g class="b" transform="translate(-274 -52)"><g transform="translate(-1776 52)"><g class="a" transform="translate(2050)"><rect class="f" width="978" height="249" rx="6"/><rect class="g" x="0.5" y="0.5" width="977" height="248" rx="5.5"/></g><g class="c" transform="translate(1050)"><rect class="f" width="978" height="249" rx="6"/><rect class="g" x="0.5" y="0.5" width="977" height="248" rx="5.5"/></g><g class="d"><rect class="f" width="978" height="249" rx="6"/><rect class="g" x="0.5" y="0.5" width="977" height="248" rx="5.5"/></g><g transform="translate(1801 -17)"><rect class="e" width="24" height="24" rx="2" transform="translate(274 132)"/><path d="M11,15.088l3.637-3.64a.685.685,0,0,1,.971,0,.693.693,0,0,1,0,.974l-4.121,4.124a.686.686,0,0,1-.948.02l-4.15-4.141a.688.688,0,1,1,.971-.974Z" transform="translate(299.996 133.003) rotate(90)"/></g><rect class="e" width="24" height="24" rx="2" transform="translate(2980 115)"/><path d="M4.811,1.658,8.449,5.3a.685.685,0,0,0,.971,0,.693.693,0,0,0,0-.974L5.3.2A.686.686,0,0,0,4.35.18L.2,4.321a.688.688,0,1,0,.971.974Z" transform="translate(2994.75 122.19) rotate(90)"/></g></g></svg>