<svg width="20" height="20" viewBox="0 0 20 20" fill="none" xmlns="http://www.w3.org/2000/svg">
<g clip-path="url(#clip0_105_51424)">
<path d="M15.1871 19.4688C14.3433 19.4688 13.3746 19.25 12.3121 18.8438C10.1871 18 7.84334 16.375 5.74959 14.2813C3.65584 12.1875 2.03084 9.84377 1.18709 7.68752C0.249592 5.37502 0.343342 3.46877 1.43709 2.40627C1.46834 2.37502 1.53084 2.34377 1.56209 2.31252L4.18709 0.750025C4.84334 0.375025 5.68709 0.562525 6.12459 1.18752L7.96834 3.93753C8.40584 4.59378 8.21834 5.46877 7.59334 5.90627L6.46834 6.68752C7.28084 8.00002 9.59334 11.2188 13.2808 13.5313L13.9683 12.5313C14.4996 11.7813 15.3433 11.5625 16.0308 12.0313L18.7808 13.875C19.4058 14.3125 19.5933 15.1563 19.2183 15.8125L17.6558 18.4375C17.6246 18.5 17.5933 18.5313 17.5621 18.5625C16.9996 19.1563 16.1871 19.4688 15.1871 19.4688ZM2.37459 3.46878C1.78084 4.12503 1.81209 5.46877 2.49959 7.18752C3.28084 9.15627 4.78084 11.3125 6.74959 13.2813C8.68709 15.2188 10.8746 16.7188 12.8121 17.5C14.4996 18.1875 15.8433 18.2188 16.5308 17.625L18.0308 15.0625C18.0308 15.0313 18.0308 15.0313 18.0308 15L15.2808 13.1563C15.2808 13.1563 15.2183 13.1875 15.1558 13.2813L14.4683 14.2813C14.0308 14.9063 13.1871 15.0938 12.5621 14.6875C8.62459 12.25 6.18709 8.84377 5.31209 7.46877C4.90584 6.81252 5.06209 5.96878 5.68709 5.53128L6.81209 4.75002V4.71878L4.96834 1.96877C4.96834 1.93752 4.93709 1.93752 4.90584 1.96877L2.37459 3.46878Z" fill="#3758F9"/>
<path d="M18.3117 8.90633C17.9367 8.90633 17.6555 8.62508 17.6242 8.25008C17.3742 5.09383 14.7805 2.56258 11.593 2.34383C11.218 2.31258 10.9055 2.00008 10.9367 1.59383C10.968 1.21883 11.2805 0.906333 11.6867 0.937583C15.5617 1.18758 18.718 4.25008 19.0305 8.12508C19.0617 8.50008 18.7805 8.84383 18.3742 8.87508C18.3742 8.90633 18.343 8.90633 18.3117 8.90633Z" fill="#3758F9"/>
<path d="M15.2182 9.18755C14.8744 9.18755 14.5619 8.93755 14.5307 8.56255C14.3432 6.87505 13.0307 5.56255 11.3432 5.3438C10.9682 5.31255 10.6869 4.93755 10.7182 4.56255C10.7494 4.18755 11.1244 3.9063 11.4994 3.93755C13.8432 4.2188 15.6557 6.0313 15.9369 8.37505C15.9682 8.75005 15.7182 9.0938 15.3119 9.1563C15.2494 9.18755 15.2182 9.18755 15.2182 9.18755Z" fill="#3758F9"/>
</g>
<defs>
<clipPath id="clip0_105_51424">
<rect width="20" height="20" fill="white"/>
</clipPath>
</defs>
</svg>
