<svg width="24" height="24" viewBox="0 0 24 24" fill="none" xmlns="http://www.w3.org/2000/svg">
<path fill-rule="evenodd" clip-rule="evenodd" d="M24 12C24 18.6274 18.6274 24 12 24C5.37259 24 0 18.6274 0 12C0 5.37259 5.37259 0 12 0C18.6274 0 24 5.37259 24 12ZM14.5718 6.00017C14.5718 7.42042 13.4204 8.57177 12.0002 8.57177C10.5799 8.57177 9.42857 7.42042 9.42857 6.00017C9.42857 4.57992 10.5799 3.42857 12.0002 3.42857C13.4204 3.42857 14.5718 4.57992 14.5718 6.00017ZM13.9513 19.9881L14.4765 15.7865H15.7143C16.0562 15.7865 16.3333 15.5093 16.3333 15.1674V13.9293C16.3333 11.536 14.3931 9.59599 11.9999 9.59599C9.60662 9.59599 7.66668 11.536 7.66668 13.9293V15.1674C7.66668 15.5093 7.94383 15.7865 8.28573 15.7865H9.52353L10.0487 19.9881C10.1023 20.417 10.467 20.7389 10.8992 20.7389H13.1008C13.5331 20.7389 13.8977 20.417 13.9513 19.9881Z" fill="white"/>
</svg>
