<svg width="24" height="18" viewBox="0 0 24 18" fill="none" xmlns="http://www.w3.org/2000/svg">
<path fill-rule="evenodd" clip-rule="evenodd" d="M0 2.14287C0 1.19611 0.767511 0.428589 1.71429 0.428589H22.2857C23.2325 0.428589 24 1.19611 24 2.14287V15.8572C24 16.804 23.2325 17.5714 22.2857 17.5714H1.71429C0.767513 17.5714 0 16.804 0 15.8572V2.14287ZM10.2857 6.42859C10.2857 7.84875 9.13445 9.00002 7.71429 9.00002C6.29412 9.00002 5.14286 7.84875 5.14286 6.42859C5.14286 5.00842 6.29412 3.85716 7.71429 3.85716C9.13445 3.85716 10.2857 5.00842 10.2857 6.42859ZM2.6514 12.9466C3.90525 11.5748 5.70924 10.7143 7.71423 10.7143C9.71921 10.7143 11.5232 11.5748 12.7771 12.9466C13.2224 13.4339 12.8281 14.1429 12.1679 14.1429H3.2605C2.60035 14.1429 2.20603 13.4339 2.6514 12.9466ZM15.2142 6.42864C15.2142 5.8369 15.6939 5.35721 16.2857 5.35721H19.7143C20.3059 5.35721 20.7857 5.8369 20.7857 6.42864C20.7857 7.02038 20.3059 7.50007 19.7143 7.50007H16.2857C15.6939 7.50007 15.2142 7.02038 15.2142 6.42864ZM16.2857 10.5001C15.6939 10.5001 15.2142 10.9798 15.2142 11.5715C15.2142 12.1632 15.6939 12.6429 16.2857 12.6429H19.7143C20.3059 12.6429 20.7857 12.1632 20.7857 11.5715C20.7857 10.9798 20.3059 10.5001 19.7143 10.5001H16.2857Z" fill="white"/>
</svg>
