<svg width="105" height="22" viewBox="0 0 105 22" fill="none" xmlns="http://www.w3.org/2000/svg">
<path d="M7.76103 4.65672V21.6077H4.76885V4.65672H0.209961V1.85501H12.3071V4.65672H7.76103Z" fill="#111928"/>
<path d="M22.5421 9.14712H25.4444V21.6077H22.5421V20.3028C21.3521 21.4115 20.0722 21.9659 18.7024 21.9659C16.973 21.9659 15.5432 21.3433 14.4132 20.0981C13.2916 18.8273 12.7309 17.2409 12.7309 15.339C12.7309 13.4712 13.2916 11.9147 14.4132 10.6695C15.5347 9.42431 16.9387 8.80171 18.6253 8.80171C20.0807 8.80171 21.3863 9.39872 22.5421 10.5928V9.14712ZM15.6845 15.339C15.6845 16.533 16.0056 17.5053 16.6477 18.2559C17.3069 19.0149 18.1373 19.3945 19.139 19.3945C20.2092 19.3945 21.0738 19.0277 21.7331 18.2942C22.3923 17.5352 22.7219 16.5714 22.7219 15.403C22.7219 14.2345 22.3923 13.2708 21.7331 12.5117C21.0738 11.7697 20.2177 11.3987 19.1647 11.3987C18.1716 11.3987 17.3411 11.774 16.6733 12.5245C16.0141 13.2836 15.6845 14.2217 15.6845 15.339Z" fill="#111928"/>
<path d="M31.9809 9.14712V21.6077H29.0915V9.14712H31.9809ZM28.6549 3.96588C28.6549 3.46269 28.8389 3.02772 29.2071 2.66098C29.5752 2.29424 30.0161 2.11087 30.5298 2.11087C31.052 2.11087 31.4972 2.29424 31.8654 2.66098C32.2335 3.01919 32.4176 3.45842 32.4176 3.97868C32.4176 4.49893 32.2335 4.94243 31.8654 5.30917C31.5058 5.67591 31.0649 5.85927 30.5426 5.85927C30.0204 5.85927 29.5752 5.67591 29.2071 5.30917C28.8389 4.94243 28.6549 4.49467 28.6549 3.96588Z" fill="#111928"/>
<path d="M38.5303 0V21.6077H35.6409V0H38.5303Z" fill="#111928"/>
<path d="M52.939 11.322H61.1322V11.9744C61.1322 13.4584 60.9567 14.7719 60.6056 15.9147C60.2632 16.9723 59.6853 17.9616 58.872 18.8827C57.0313 20.9467 54.6898 21.9787 51.8474 21.9787C49.0736 21.9787 46.6978 20.9808 44.7202 18.9851C42.7425 16.9808 41.7537 14.5757 41.7537 11.7697C41.7537 8.90405 42.7596 6.47335 44.7715 4.47761C46.7834 2.47335 49.232 1.47122 52.1171 1.47122C53.6667 1.47122 55.1136 1.78678 56.4577 2.41791C57.7419 3.04904 59.0047 4.07249 60.2461 5.48827L58.1143 7.52239C56.4877 5.36461 54.5057 4.28571 52.1685 4.28571C50.071 4.28571 48.3116 5.0064 46.8904 6.44776C45.4693 7.86354 44.7587 9.63753 44.7587 11.7697C44.7587 13.9701 45.5506 15.7825 47.1344 17.2068C48.6155 18.5288 50.2208 19.1898 51.9502 19.1898C53.4227 19.1898 54.7454 18.6951 55.9183 17.7058C57.0912 16.7079 57.7462 15.5139 57.8832 14.1237H52.939V11.322Z" fill="#111928"/>
<path d="M64.3555 9.14712H67.2449V10.2601C67.7757 9.70576 68.2466 9.32623 68.6575 9.12154C69.077 8.90832 69.5736 8.80171 70.1472 8.80171C70.9092 8.80171 71.7054 9.04904 72.5358 9.54371L71.2131 12.1791C70.6652 11.7868 70.1301 11.5906 69.6078 11.5906C68.0326 11.5906 67.2449 12.7761 67.2449 15.1471V21.6077H64.3555V9.14712Z" fill="#111928"/>
<path d="M77.4928 9.14712V21.6077H74.6034V9.14712H77.4928ZM74.1667 3.96588C74.1667 3.46269 74.3508 3.02772 74.7189 2.66098C75.0871 2.29424 75.528 2.11087 76.0417 2.11087C76.5639 2.11087 77.0091 2.29424 77.3772 2.66098C77.7454 3.01919 77.9294 3.45842 77.9294 3.97868C77.9294 4.49893 77.7454 4.94243 77.3772 5.30917C77.0177 5.67591 76.5767 5.85927 76.0545 5.85927C75.5323 5.85927 75.0871 5.67591 74.7189 5.30917C74.3508 4.94243 74.1667 4.49467 74.1667 3.96588Z" fill="#111928"/>
<path d="M90.3733 0H93.2756V21.6077H90.3733V20.3028C89.2346 21.4115 87.9462 21.9659 86.5079 21.9659C84.7956 21.9659 83.3744 21.3433 82.2443 20.0981C81.1228 18.8273 80.562 17.2409 80.562 15.339C80.562 13.4797 81.1228 11.9275 82.2443 10.6823C83.3573 9.42857 84.7571 8.80171 86.4436 8.80171C87.9076 8.80171 89.2175 9.39872 90.3733 10.5928V0ZM83.5157 15.339C83.5157 16.533 83.8367 17.5053 84.4788 18.2559C85.138 19.0149 85.9685 19.3945 86.9702 19.3945C88.0403 19.3945 88.905 19.0277 89.5642 18.2942C90.2235 17.5352 90.5531 16.5714 90.5531 15.403C90.5531 14.2345 90.2235 13.2708 89.5642 12.5117C88.905 11.7697 88.0489 11.3987 86.9958 11.3987C86.0027 11.3987 85.1723 11.774 84.5045 12.5245C83.8453 13.2836 83.5157 14.2217 83.5157 15.339Z" fill="#111928"/>
<path d="M104.191 11.2708L101.803 12.5373C101.426 11.7697 100.959 11.3859 100.403 11.3859C100.137 11.3859 99.9106 11.4755 99.7222 11.6546C99.5339 11.8252 99.4397 12.0469 99.4397 12.3198C99.4397 12.7974 99.9962 13.2708 101.109 13.7399C102.642 14.3966 103.673 15.0021 104.204 15.5565C104.735 16.1109 105 16.8571 105 17.7953C105 18.9979 104.555 20.0043 103.665 20.8145C102.8 21.5821 101.756 21.9659 100.531 21.9659C98.4337 21.9659 96.9484 20.9467 96.0751 18.9083L98.5408 17.7697C98.8832 18.3667 99.1443 18.7463 99.3241 18.9083C99.6751 19.2324 100.095 19.3945 100.583 19.3945C101.559 19.3945 102.047 18.951 102.047 18.064C102.047 17.5522 101.67 17.0746 100.917 16.6311C100.625 16.4861 100.334 16.3454 100.043 16.209C99.7522 16.0725 99.4568 15.9318 99.1572 15.7868C98.3182 15.3774 97.7274 14.968 97.385 14.5586C96.9484 14.0384 96.73 13.3689 96.73 12.5501C96.73 11.467 97.1025 10.5714 97.8473 9.86354C98.6093 9.15565 99.5339 8.80171 100.621 8.80171C102.222 8.80171 103.412 9.62473 104.191 11.2708Z" fill="#111928"/>
</svg>
