<svg width="90" height="122" viewBox="0 0 90 122" fill="none" xmlns="http://www.w3.org/2000/svg">
<path d="M25.9088 24.7287C26.9908 24.3482 27.4236 23.2069 26.9908 22.2558C26.558 21.3047 25.2596 20.9243 24.1776 21.3047C0.373491 30.4353 -5.90214 48.1257 5.56712 73.9956C5.99992 74.7565 6.43272 75.7076 6.43272 75.8978C6.43272 76.088 6.64912 76.2782 6.64912 76.4684C8.81313 79.8924 7.29832 94.5393 5.99992 103.099C5.78352 104.05 6.64912 105.192 7.73113 105.192C8.81313 105.382 10.1115 104.621 10.1115 103.67C10.7607 99.8655 13.7904 80.8435 10.5443 74.9467C10.3279 74.376 10.1115 73.8054 9.46233 72.4738C5.78352 63.7237 -6.11854 37.093 25.9088 24.7287Z" fill="white"/>
<path d="M82.1739 67.9086C81.0919 67.1477 80.8755 65.8162 81.5247 63.914C83.2559 58.7781 78.9279 30.0549 65.0782 22.6363C63.9962 22.0657 62.6978 22.4461 62.0486 23.207C61.3994 24.1581 61.8322 25.2994 62.6978 25.8701C74.3834 31.9571 78.7115 58.3976 77.4131 62.7727C76.3311 66.0064 76.9803 68.6695 78.9279 70.5717C80.6591 73.0446 86.0691 77.6098 85.6363 79.7022C85.4199 80.4631 83.2559 81.224 82.6067 81.4142C81.3083 81.224 80.2263 82.1751 80.2263 83.3164V88.2621L78.9279 89.4035C78.2787 89.9741 78.0623 90.9252 78.2787 91.6861L80.0099 94.7296C81.0919 96.6318 78.4951 99.6753 76.9803 101.387C74.3834 104.05 68.9734 103.86 56.4222 100.626C54.2581 100.056 52.0941 101.007 51.2285 102.719L42.7889 119.078C42.3561 120.029 42.7889 121.17 43.8709 121.551C44.9529 121.931 46.2513 121.551 46.6841 120.599L55.1238 103.86C67.8914 107.094 75.6818 108.045 80.2263 103.48C84.3379 99.2949 85.6363 95.6807 83.9051 92.6372L83.0395 90.9252L83.9051 90.1643C84.3379 89.7839 84.7707 89.2132 84.7707 88.6426V84.2675C87.3675 83.3164 89.5315 82.1751 89.9643 79.8925C90.6135 76.0881 82.3903 68.0988 82.1739 67.9086Z" fill="white"/>
<path d="M44.5199 87.3109L50.7955 72.8542C52.5267 69.0498 51.8775 64.8649 49.4971 61.6312C51.2283 60.1094 52.3103 58.017 52.9595 56.6855C68.7568 54.9735 66.8092 40.5168 67.0256 40.3266C66.8092 39.3755 65.9436 38.4244 64.6452 38.6146C63.5632 39.1853 51.0119 37.0928 49.2807 54.5931C48.6315 56.1148 47.5495 57.8268 46.6839 58.7779C46.2511 58.3975 45.8183 58.2072 45.3855 57.8268C35.6474 52.5006 45.6019 41.2777 49.0643 35.9515C52.9595 29.8645 49.4971 24.7286 49.0643 23.397C51.0119 21.8753 52.0939 19.4024 52.7431 17.6904C68.5404 14.8371 66.5928 1.71198 66.5928 1.52176C66.5928 0.951099 66.16 0.570659 65.7272 0.19022C65.078 0.19022 64.6452 0 63.996 0C63.7796 0.19022 47.9823 -0.19022 48.6315 15.9785C48.4151 17.1198 47.9823 18.0709 47.5495 19.022L42.3559 2.8533C41.9231 1.9022 40.6247 1.33154 39.5426 1.52176C38.4606 1.9022 37.8114 2.8533 38.0278 3.99461L40.8411 12.5545C39.5426 12.3643 38.0278 11.6034 36.7294 11.0327C25.9094 -0.570659 13.3581 7.79901 13.1417 7.79901C12.0597 8.36967 11.8433 9.51099 12.7089 10.4621C13.5745 11.223 20.7158 21.8753 35.431 14.6469C36.9458 15.4078 39.759 16.5491 42.1395 16.5491C45.8183 28.9134 47.7659 30.2449 45.1691 34.2396C42.5723 36.332 36.9458 45.0821 36.7294 51.3593C36.2966 50.7887 35.8638 50.218 35.431 49.6474C35.2146 49.4571 35.2146 35.9515 17.0369 36.5222C16.3877 36.5222 15.7385 36.7124 15.3057 37.2831C14.6565 37.8537 14.8729 38.4244 14.8729 38.995C16.3877 47.5549 22.447 52.8811 32.185 52.3104C33.267 53.8322 35.431 56.4953 38.2442 57.2561C40.8411 61.8214 50.3627 63.7236 46.9003 71.9031L40.6247 86.3598C40.1918 87.3109 40.8411 88.4522 41.9231 88.8326C42.7887 88.8326 44.0871 88.262 44.5199 87.3109ZM62.2648 3.99461C62.4812 10.2719 57.2875 12.9349 52.9595 13.886C53.1759 10.0816 55.1235 5.13593 62.2648 3.99461ZM17.4697 9.89143C23.7454 6.65769 28.7226 9.32077 31.9686 11.9838C27.857 13.6958 22.2306 14.6469 17.4697 9.89143ZM19.6338 40.1364C23.9618 40.3266 29.5882 42.0386 30.8866 48.3158C23.7454 48.506 20.7158 43.9408 19.6338 40.1364ZM62.6976 42.7994C62.6976 47.7452 58.5859 51.93 53.1759 52.8811C53.3923 48.1256 57.2875 43.9408 62.6976 42.7994Z" fill="white"/>
</svg>
