<svg width="32" height="32" viewBox="0 0 32 32" fill="none" xmlns="http://www.w3.org/2000/svg">
<path d="M0.5 16C0.5 7.43959 7.43959 0.5 16 0.5C24.5604 0.5 31.5 7.43959 31.5 16C31.5 24.5604 24.5604 31.5 16 31.5C7.43959 31.5 0.5 24.5604 0.5 16Z" fill="white" stroke="#DFE4EA"/>
<path d="M22.635 12.3C22.7241 12.1961 22.6079 12.0603 22.4761 12.109C22.1818 12.2175 21.9129 12.2891 21.5151 12.3333C22.0043 12.0609 22.2319 11.6716 22.4169 11.1947C22.4615 11.0797 22.3269 10.9753 22.211 11.0302C21.7401 11.2535 21.2321 11.4191 20.6978 11.517C20.1697 10.9937 19.417 10.6666 18.5843 10.6666C16.9854 10.6666 15.6888 11.8725 15.6888 13.3594C15.6888 13.5705 15.7147 13.7761 15.7635 13.973C13.465 13.8659 11.4155 12.8827 9.99166 11.375C9.89407 11.2717 9.71698 11.2854 9.65621 11.4114C9.49411 11.7477 9.40373 12.1207 9.40373 12.5134C9.40373 13.4475 9.91475 14.2716 10.6916 14.7545C10.3433 14.744 10.0102 14.6762 9.70321 14.561C9.55375 14.5049 9.38243 14.6035 9.40251 14.7542C9.55667 15.9114 10.4936 16.8662 11.703 17.0918C11.4601 17.1536 11.2043 17.1864 10.9397 17.1864C10.8756 17.1864 10.8119 17.1844 10.7489 17.1805C10.5885 17.1706 10.4582 17.314 10.527 17.4513C10.9806 18.3568 11.9602 18.9889 13.1002 19.0086C12.1093 19.731 10.8609 20.1614 9.50429 20.1614C9.33701 20.1614 9.26525 20.3764 9.41365 20.4494C10.5598 21.0128 11.865 21.3333 13.2519 21.3333C18.5779 21.3333 21.4899 17.2302 21.4899 13.6717C21.4899 13.5552 21.4869 13.4387 21.4817 13.3233C21.9139 13.0329 22.3025 12.6876 22.635 12.3Z" fill="#111928"/>
</svg>
