<svg width="108" height="108" viewBox="0 0 108 108" fill="none" xmlns="http://www.w3.org/2000/svg">
<path d="M44.7734 47.8952L44.7735 47.8952C47.6911 50.8068 49.8145 54.3624 51.0049 58.2268C45.3677 61.9022 41.4904 68.0553 40.9322 75.1429H40.7503L40.5309 76.8943L37.0891 104.373C36.973 105.299 36.1822 106 35.2384 106H18.8721C17.9284 106 17.1375 105.299 17.0214 104.373L13.5796 76.8943L13.3602 75.1429H11.5951H3.86504C2.83116 75.1429 2 74.3075 2 73.2857V65.5714C2 58.9423 4.63875 52.5839 9.33709 47.8952L9.33711 47.8952C14.0355 43.2063 20.4089 40.5714 27.0553 40.5714C33.7017 40.5714 40.075 43.2063 44.7734 47.8952ZM72.804 66.2513V68.2513H74.804H85.7235H87.7235V66.2513V61.2303C87.7235 59.0563 85.958 57.3017 83.7909 57.3017H76.7365C74.5685 57.3017 72.804 59.0566 72.804 61.2303V66.2513ZM63.2093 68.2513L65.2088 68.2509V66.2513V61.2303C65.2088 54.8829 70.3661 49.7303 76.7365 49.7303H83.7909C90.1613 49.7303 95.3186 54.8829 95.3186 61.2303V66.2513V68.2506L97.3178 68.2513C102.117 68.253 106 72.1351 106 76.9153V97.3358C106 102.116 102.115 105.999 97.3147 105.999H63.211C58.4101 105.999 54.5253 102.116 54.5253 97.3358V76.9153C54.5253 72.1348 58.4092 68.2523 63.2093 68.2513ZM40.5154 15.4286C40.5154 22.8411 34.493 28.8571 27.0553 28.8571C19.6176 28.8571 13.5951 22.8411 13.5951 15.4286C13.5951 8.01603 19.6176 2 27.0553 2C34.493 2 40.5154 8.01603 40.5154 15.4286Z" stroke="white" stroke-width="4"/>
</svg>
