<svg width="24" height="24" viewBox="0 0 24 24" fill="none" xmlns="http://www.w3.org/2000/svg">
<path fill-rule="evenodd" clip-rule="evenodd" d="M12 3.00001C8.82091 3.00001 6.02471 4.64882 4.42332 7.14009L5.58387 7.83642C5.88114 8.01479 6.0417 8.35466 5.99069 8.69757C5.93965 9.04047 5.68709 9.31887 5.35076 9.40296L1.9222 10.2601C1.46296 10.3749 0.997586 10.0957 0.882772 9.63644L0.0256335 6.20789C-0.058449 5.87154 0.068348 5.51768 0.346899 5.3113C0.62545 5.10492 1.0009 5.08664 1.29817 5.265L2.2178 5.81677C4.26826 2.57937 7.88188 0.428589 12 0.428589C16.672 0.428589 20.6947 3.19734 22.5216 7.17796C22.8178 7.82332 22.5348 8.58659 21.8893 8.8828C21.2441 9.17899 20.4807 8.89593 20.1845 8.25059C18.7613 5.14942 15.6303 3.00001 12 3.00001ZM19.5768 16.8599L18.416 16.1635C18.1188 15.9852 17.9583 15.6453 18.0092 15.3024C18.0603 14.9595 18.3128 14.6811 18.6492 14.597L22.0777 13.7398C22.537 13.625 23.0024 13.9042 23.1173 14.3635L23.9744 17.792C24.0584 18.1283 23.9316 18.4822 23.6532 18.6886C23.3746 18.895 22.9992 18.9133 22.7017 18.7349L21.7822 18.1832C19.7317 21.4206 16.1182 23.5714 12 23.5714C7.32806 23.5714 3.30546 20.8026 1.47849 16.822C1.1823 16.1766 1.46534 15.4134 2.11069 15.1172C2.75605 14.821 3.51933 15.104 3.81552 15.7494C5.23884 18.8506 8.36978 20.9999 12 20.9999C15.1791 20.9999 17.9753 19.3511 19.5768 16.8599Z" fill="white"/>
</svg>
