<svg width="24" height="26" viewBox="0 0 24 26" fill="none" xmlns="http://www.w3.org/2000/svg">
<path fill-rule="evenodd" clip-rule="evenodd" d="M6.01228 7.84664C7.90971 7.84664 9.44787 6.30848 9.44787 4.41105C9.44787 2.51363 7.90971 0.975464 6.01228 0.975464C4.11486 0.975464 2.57669 2.51363 2.57669 4.41105C2.57669 6.30848 4.11486 7.84664 6.01228 7.84664ZM9.52503 18.1534V18.1027C9.52503 16.4017 10.4643 14.9201 11.8524 14.1481C11.5931 13.0883 11.0479 12.1097 10.2636 11.3254C9.13609 10.1979 7.60684 9.56444 6.01228 9.56444C4.41772 9.56444 2.88847 10.1979 1.76096 11.3254C0.633435 12.4529 0 13.9822 0 15.5767V17.2945C0 17.7689 0.384542 18.1534 0.858897 18.1534H2.57669L3.34154 24.2722C3.39527 24.702 3.76065 25.0246 4.19381 25.0246H7.83076C8.26392 25.0246 8.62929 24.702 8.68302 24.2722L9.44787 18.1534H9.52503ZM17.0525 14.1806C16.8154 14.1806 16.6231 14.3729 16.6231 14.61V15.7281H19.0497V14.61C19.0497 14.3729 18.8573 14.1806 18.6202 14.1806H17.0525ZM14.0464 14.61V15.7281C12.7352 15.7284 11.6723 16.7914 11.6723 18.1027V22.6499C11.6723 23.9613 12.7354 25.0244 14.0469 25.0244H21.6255C22.9369 25.0244 24 23.9613 24 22.6499V18.1027C24 16.7916 22.9374 15.7286 21.6264 15.7281V14.61C21.6264 12.9498 20.2805 11.6039 18.6202 11.6039H17.0525C15.3923 11.6039 14.0464 12.9498 14.0464 14.61Z" fill="white"/>
</svg>
